<?xml version="1.0" encoding="utf-8"?>
<!-- Generator: Adobe Illustrator 16.0.0, SVG Export Plug-In . SVG Version: 6.00 Build 0)  -->
<!DOCTYPE svg PUBLIC "-//W3C//DTD SVG 1.1//EN" "http://www.w3.org/Graphics/SVG/1.1/DTD/svg11.dtd">
<svg version="1.1" id="Layer_1" xmlns="http://www.w3.org/2000/svg" xmlns:xlink="http://www.w3.org/1999/xlink" x="0px" y="0px"
	 width="800px" height="800px" viewBox="0 0 800 800" enable-background="new 0 0 800 800" xml:space="preserve">
<path fill="#808080" d="M800,400c0-33.137-26.863-60-60-60H60c-33.137,0-60,26.863-60,60v1c0,33.137,26.863,60,60,60h680
	c33.137,0,60-26.863,60-60V400z"/>
<path fill="#808080" d="M460,60c0-33.137-26.863-60-60-60h-1c-33.137,0-60,26.863-60,60v680c0,33.137,26.863,60,60,60h1
	c33.137,0,60-26.863,60-60V60z"/>
</svg>
